<?xml version="1.0" standalone="no"?>
<!DOCTYPE svg PUBLIC "-//W3C//DTD SVG 20010904//EN"
 "http://www.w3.org/TR/2001/REC-SVG-20010904/DTD/svg10.dtd">
<svg version="1.0" xmlns="http://www.w3.org/2000/svg"
 width="1920.000000pt" height="420.000000pt" viewBox="0 0 1920.000000 420.000000"
 preserveAspectRatio="xMidYMid meet">

<g transform="translate(0.000000,420.000000) scale(0.100000,-0.100000)"
fill="#FFFFFF" stroke="none">
<path d="M1492 3849 c-382 -44 -625 -231 -822 -634 -75 -151 -126 -302 -250
-735 -55 -190 -113 -392 -130 -450 -72 -240 -80 -295 -80 -532 0 -204 2 -222
25 -296 65 -205 254 -373 486 -431 157 -40 263 -46 759 -45 523 0 919 20 946
47 10 10 236 748 231 753 -3 3 -54 -2 -114 -10 -455 -67 -929 -74 -1218 -19
-97 18 -139 42 -167 96 -18 37 -20 53 -15 152 7 135 38 256 170 655 185 556
264 690 434 735 48 13 173 17 735 22 l678 6 9 31 c6 17 51 168 101 336 50 168
93 311 95 318 3 9 -180 12 -898 11 -496 -1 -935 -5 -975 -10z"/>
<path d="M4635 3853 c-299 -9 -614 -38 -728 -68 -193 -50 -379 -227 -500 -477
-183 -378 -432 -1145 -508 -1565 -18 -99 -20 -144 -16 -278 5 -182 18 -240 77
-361 32 -65 56 -96 123 -161 123 -118 247 -172 465 -204 116 -16 877 -23 1075
-10 456 31 704 126 855 327 70 94 142 226 197 364 147 365 430 1322 491 1659
14 78 15 108 6 175 -21 159 -74 255 -209 378 -92 84 -174 129 -285 157 -203
52 -609 77 -1043 64z m380 -590 c88 -16 139 -35 169 -61 30 -27 56 -92 56
-143 0 -128 -252 -1004 -386 -1338 -143 -356 -218 -416 -539 -428 -171 -7
-318 7 -398 37 -130 49 -173 164 -131 347 47 209 264 922 360 1186 112 308
156 365 307 397 154 31 404 33 562 3z"/>
<path d="M17100 3853 c-311 -10 -620 -39 -720 -69 -170 -50 -343 -196 -452
-379 -125 -210 -350 -831 -477 -1316 -93 -353 -118 -529 -101 -693 22 -214 65
-314 189 -436 171 -169 329 -218 761 -235 l176 -7 29 42 c68 99 245 235 411
319 171 85 437 156 693 186 108 13 292 20 221 8 -99 -15 -335 -68 -403 -89
-316 -99 -629 -349 -757 -604 -63 -125 -87 -224 -57 -236 8 -3 47 29 93 74
147 147 335 232 609 279 85 14 208 17 799 22 l699 6 83 275 c46 151 84 278 84
283 0 4 -203 7 -450 7 l-451 0 15 29 c93 178 338 940 468 1451 80 316 93 422
64 544 -29 123 -69 191 -175 296 -107 106 -175 146 -303 179 -201 52 -626 78
-1048 64z m372 -588 c170 -29 228 -82 228 -205 0 -140 -238 -974 -376 -1319
-121 -301 -191 -388 -347 -428 -101 -25 -440 -25 -537 0 -191 51 -239 163
-174 412 64 251 267 913 366 1195 35 99 88 208 124 255 45 59 129 88 302 105
108 11 311 3 414 -15z"/>
<path d="M6661 3678 c-82 -272 -450 -1465 -576 -1863 -123 -390 -315 -1017
-315 -1029 0 -3 205 -6 455 -6 l454 0 20 68 c347 1169 643 2161 649 2175 4 11
58 -298 137 -785 l131 -803 84 0 84 0 646 786 c355 433 646 785 648 784 1 -1
-148 -495 -333 -1096 -185 -602 -338 -1102 -341 -1112 -5 -16 19 -17 453 -15
l458 3 267 910 c147 501 347 1176 443 1500 97 325 178 598 181 608 5 16 -21
17 -441 17 -499 0 -543 -4 -674 -66 -161 -75 -278 -198 -630 -661 -134 -175
-246 -319 -249 -321 -4 -1 -29 141 -56 315 -27 175 -57 352 -67 393 -49 194
-148 288 -344 325 -61 12 -176 15 -559 15 l-483 0 -42 -142z"/>
<path d="M10275 2883 c-370 -1205 -635 -2075 -635 -2090 0 -10 98 -13 459 -13
l459 0 16 53 c9 28 66 224 127 435 l112 382 456 0 c472 0 614 7 763 40 345 75
627 342 809 767 134 312 193 672 138 849 -73 237 -228 394 -474 481 l-80 28
-931 3 -930 3 -289 -938z m1711 399 c111 -38 155 -102 162 -232 11 -210 -108
-483 -283 -648 -81 -78 -143 -112 -260 -143 -70 -19 -114 -22 -347 -27 -218
-3 -268 -2 -268 9 0 10 186 663 296 1042 5 16 29 17 327 17 282 -1 328 -3 373
-18z"/>
<path d="M14220 3813 c-75 -13 -183 -49 -254 -85 -64 -33 -102 -63 -182 -143
-86 -85 -125 -137 -256 -335 -160 -243 -1498 -2439 -1498 -2459 0 -8 126 -11
472 -9 l473 3 185 330 186 330 512 3 512 2 0 -335 0 -335 405 0 405 0 0 1520
0 1520 -467 -1 c-258 -1 -479 -4 -493 -6z m147 -1840 c-2 -2 -167 -2 -366 -1
l-361 3 176 315 c96 173 259 463 362 644 l187 328 3 -643 c1 -353 1 -644 -1
-646z"/>
</g>
</svg>
